<svg width="320" height="249" viewBox="0 0 320 249" fill="none" xmlns="http://www.w3.org/2000/svg">
<rect width="320" height="248.32" fill="#D2D3D8"/>
<g filter="url(#filter0_d_54_2046)">
<rect x="2.56006" y="6.82666" width="27.3067" height="35.84" rx="4.26667" fill="white" shape-rendering="crispEdges"/>
<path d="M20.0503 27.3453V24.304H12.6536V27.3453H20.0503ZM21.4583 28.6031H11.2456V19.8172H12.6536V23.0462H20.0503V19.8172H21.4583V28.6031Z" fill="black"/>
</g>
<g filter="url(#filter1_d_54_2046)">
<rect x="34.9868" y="6.82666" width="26.4533" height="35.84" rx="4.26667" fill="white" shape-rendering="crispEdges"/>
<path d="M53.4771 21.0187H49.178V22.3141C49.178 24.886 51.6936 26.8384 54.2093 27.533L53.5334 28.6407C51.412 28.0024 49.3094 26.5193 48.4834 24.7734C47.6198 26.5568 45.5735 28.0587 43.4146 28.7158L42.6824 27.6269C45.2356 26.9135 47.7325 24.9799 47.7325 22.3891V21.0187H43.4334V19.836H53.4771V21.0187Z" fill="black"/>
</g>
<g filter="url(#filter2_d_54_2046)">
<rect x="66.5601" y="6.82666" width="27.3067" height="35.84" rx="4.26667" fill="white" shape-rendering="crispEdges"/>
<path d="M85.4959 28.5843H75.3207V20.0049H85.4583V21.2627H76.71V27.3265H85.4959V28.5843Z" fill="black"/>
</g>
<g filter="url(#filter3_d_54_2046)">
<rect x="98.9868" y="6.82666" width="26.4533" height="35.84" rx="4.26667" fill="white" shape-rendering="crispEdges"/>
<path d="M116.67 28.5656H115.281V21.3003H107.189V20.0425H116.67V28.5656Z" fill="black"/>
</g>
<g filter="url(#filter4_d_54_2046)">
<rect x="130.56" y="6.82666" width="27.3067" height="35.84" rx="4.26667" fill="white" shape-rendering="crispEdges"/>
<path d="M150.097 27.6645L149.571 28.8096C147.45 28.3403 145.197 26.5568 144.408 24.5856C143.601 26.5381 141.386 28.3403 139.189 28.8847L138.607 27.7395C141.273 26.9886 143.657 24.6795 143.657 22.2014V19.667H145.103V22.1451C145.103 24.6983 147.412 26.9511 150.097 27.6645Z" fill="black"/>
</g>
<g filter="url(#filter5_d_54_2046)">
<rect x="162.987" y="6.82666" width="26.4533" height="35.84" rx="4.26667" fill="white" shape-rendering="crispEdges"/>
<path d="M183.598 28.697H168.993V27.4767H173.067V20.0425H174.456V27.4767H177.798V20.0425H179.187V27.4767H183.598V28.697Z" fill="black"/>
</g>
<g filter="url(#filter6_d_54_2046)">
<rect x="194.56" y="6.82666" width="26.4533" height="35.84" rx="4.26667" fill="white" shape-rendering="crispEdges"/>
<path d="M208.545 22.4267H204.809V21.1689H208.545V16.2878H209.934V32.4892H208.545V26.2189H204.809V24.9423H208.545V22.4267Z" fill="black"/>
</g>
<g filter="url(#filter7_d_54_2046)">
<rect x="226.133" y="6.82666" width="27.3067" height="35.84" rx="4.26667" fill="white" shape-rendering="crispEdges"/>
<path d="M243.248 26.9511H239.55V32.4892H238.179V16.2878H239.55V21.5256H243.248V22.8022H239.55V25.6745H243.248V26.9511Z" fill="black"/>
</g>
<g filter="url(#filter8_d_54_2046)">
<rect x="258.56" y="6.82666" width="26.4533" height="35.84" rx="4.26667" fill="white" shape-rendering="crispEdges"/>
<path d="M274.591 32.508H273.202V24.06H270.611V32.1513H269.241V16.5319H270.611V22.7834H273.202V16.3254H274.591V32.508Z" fill="black"/>
</g>
<g filter="url(#filter9_d_54_2046)">
<rect x="290.133" y="6.82666" width="27.3067" height="35.84" rx="4.26667" fill="white" shape-rendering="crispEdges"/>
<path d="M307.135 32.4329H305.765V16.3817H307.135V32.4329ZM304.207 31.8885H302.836V24.1538H299.626V22.896H302.836V16.5882H304.207V31.8885Z" fill="black"/>
</g>
<g filter="url(#filter10_d_54_2046)">
<rect x="19.2002" y="52.9066" width="27.3067" height="35.84" rx="4.26667" fill="white" shape-rendering="crispEdges"/>
<path d="M36.7092 73.4065V67.3052H29.2938V73.4065H36.7092ZM38.1172 74.6643H27.9045V66.0473H38.1172V74.6643Z" fill="black"/>
</g>
<g filter="url(#filter11_d_54_2046)">
<rect x="51.6265" y="52.9066" width="25.6" height="35.84" rx="4.26667" fill="white" shape-rendering="crispEdges"/>
<path d="M59.5899 66.1224H60.9792V73.3689H69.934V74.6455H59.5899V66.1224Z" fill="black"/>
</g>
<g filter="url(#filter12_d_54_2046)">
<rect x="82.3467" y="52.9066" width="27.3067" height="35.84" rx="4.26667" fill="white" shape-rendering="crispEdges"/>
<path d="M95.9884 67.0048C93.9233 67.0048 92.2901 68.1124 92.2901 70.2901C92.2901 72.4678 93.9046 73.6318 95.9884 73.6318C98.091 73.6318 99.7431 72.4678 99.7431 70.2901C99.7431 68.1124 98.091 67.0048 95.9884 67.0048ZM101.132 70.2901C101.132 73.1437 98.842 74.8333 95.9884 74.8333C93.3038 74.8333 90.8445 73.1437 90.8445 70.2901C90.8445 67.399 93.3038 65.8033 95.9884 65.8033C98.673 65.8033 101.132 67.399 101.132 70.2901Z" fill="black"/>
</g>
<g filter="url(#filter13_d_54_2046)">
<rect x="114.773" y="52.9066" width="27.3067" height="35.84" rx="4.26667" fill="white" shape-rendering="crispEdges"/>
<path d="M133.935 74.8708H123.44V69.6894H132.282V67.1362H123.44V65.8972H133.69V70.9472H124.848V73.613H133.935V74.8708Z" fill="black"/>
</g>
<g filter="url(#filter14_d_54_2046)">
<rect x="147.2" y="52.9066" width="25.6" height="35.84" rx="4.26667" fill="white" shape-rendering="crispEdges"/>
<path d="M162.786 66.4416H157.567V65.2401H162.786V66.4416ZM162.617 72.4866C162.617 71.4165 161.622 70.7595 160.195 70.7595C158.768 70.7595 157.736 71.4165 157.736 72.4866C157.736 73.5567 158.768 74.2137 160.195 74.2137C161.622 74.2137 162.617 73.5567 162.617 72.4866ZM165.62 68.7695H154.676V67.568H165.62V68.7695ZM164.025 72.4866C164.025 74.2888 162.316 75.3965 160.195 75.3965C158.017 75.3965 156.346 74.2888 156.346 72.4866C156.346 70.6844 158.017 69.5955 160.195 69.5955C162.335 69.5955 164.025 70.6844 164.025 72.4866Z" fill="black"/>
</g>
<g filter="url(#filter15_d_54_2046)">
<rect x="177.92" y="52.9066" width="27.3067" height="35.84" rx="4.26667" fill="white" shape-rendering="crispEdges"/>
<path d="M198.958 74.3639H184.184V73.0873H190.811V66.1975H192.2V73.0873H198.958V74.3639Z" fill="black"/>
</g>
<g filter="url(#filter16_d_54_2046)">
<rect x="210.347" y="52.9066" width="27.3067" height="35.84" rx="4.26667" fill="white" shape-rendering="crispEdges"/>
<path d="M224.814 69.2013V62.4241H226.204V78.5879H224.814V70.4779H221.041V69.2013H224.814Z" fill="black"/>
</g>
<g filter="url(#filter17_d_54_2046)">
<rect x="242.773" y="52.9066" width="25.6" height="35.84" rx="4.26667" fill="white" shape-rendering="crispEdges"/>
<path d="M256.05 62.4241V69.1262H259.748V70.4028H256.05V78.5879H254.661V62.4241H256.05Z" fill="black"/>
</g>
<g filter="url(#filter18_d_54_2046)">
<rect x="273.493" y="52.9066" width="27.3067" height="35.84" rx="4.26667" fill="white" shape-rendering="crispEdges"/>
<path d="M286.628 78.663V62.4616H288.017V78.663H286.628Z" fill="black"/>
</g>
<g filter="url(#filter19_d_54_2046)">
<rect x="2.56006" y="98.9867" width="37.5467" height="35.84" rx="4.26667" fill="#ABB0BC" shape-rendering="crispEdges"/>
<path fill-rule="evenodd" clip-rule="evenodd" d="M20.6094 109.871C21.0093 109.471 21.6577 109.471 22.0576 109.871L29.5609 117.374C30.206 118.019 29.7491 119.122 28.8368 119.122H25.5238V122.365C25.5238 123.402 24.6833 124.242 23.6465 124.242H19.0205C17.9837 124.242 17.1432 123.402 17.1432 122.365V119.122H13.8303C12.918 119.122 12.4611 118.019 13.1062 117.374L20.6094 109.871ZM21.3335 110.836L14.2423 117.928H18.3379V122.365C18.3379 122.742 18.6435 123.048 19.0205 123.048H23.6465C24.0235 123.048 24.3292 122.742 24.3292 122.365V117.928H28.4248L21.3335 110.836Z" fill="black"/>
</g>
<g filter="url(#filter20_d_54_2046)">
<rect x="52.0532" y="98.9867" width="26.4533" height="35.84" rx="4.26667" fill="white" shape-rendering="crispEdges"/>
<path d="M70.506 111.996V120.876H69.0604V117.177H60.1431V115.957H69.0604V113.254H60.3308V111.996H70.506Z" fill="black"/>
</g>
<g filter="url(#filter21_d_54_2046)">
<rect x="83.6265" y="98.9867" width="26.4533" height="35.84" rx="4.26667" fill="white" shape-rendering="crispEdges"/>
<path d="M102.286 119.524V120.782H91.9604V112.127H102.211V113.385H93.3684V115.732H102.042V117.008H93.3684V119.524H102.286Z" fill="black"/>
</g>
<g filter="url(#filter22_d_54_2046)">
<rect x="115.2" y="98.9867" width="26.4533" height="35.84" rx="4.26667" fill="white" shape-rendering="crispEdges"/>
<path d="M131.287 112.447H125.881V111.245H131.287V112.447ZM133.503 114.831H129.335V115.319C129.335 117.778 131.813 119.637 134.272 120.238L133.672 121.42C131.287 120.838 129.429 119.28 128.622 117.741C127.796 119.28 125.806 120.913 123.497 121.514L122.877 120.331C125.355 119.637 127.814 117.797 127.814 115.394V114.831H123.59V113.629H133.503V114.831Z" fill="black"/>
</g>
<g filter="url(#filter23_d_54_2046)">
<rect x="146.773" y="98.9867" width="25.6" height="35.84" rx="4.26667" fill="white" shape-rendering="crispEdges"/>
<path d="M165.269 119.58V120.782H154.211V119.58H156.858L156.408 114.268L157.741 114.117L158.154 119.58H161.289L161.852 114.117L163.166 114.268L162.584 119.58H165.269ZM165.006 112.203V113.404H154.474V112.203H165.006Z" fill="black"/>
</g>
<g filter="url(#filter24_d_54_2046)">
<rect x="177.493" y="98.9867" width="26.4533" height="35.84" rx="4.26667" fill="white" shape-rendering="crispEdges"/>
<path d="M193.975 121.676H192.585V114.58H188.85V121.676H187.442V114.58H183.33V113.36H198.105V114.58H193.975V121.676Z" fill="black"/>
</g>
<g filter="url(#filter25_d_54_2046)">
<rect x="209.067" y="98.9867" width="26.4533" height="35.84" rx="4.26667" fill="white" shape-rendering="crispEdges"/>
<path d="M223.127 121.25H221.719V114.285H215.204V113.064H229.679V114.285H223.127V121.25Z" fill="black"/>
</g>
<g filter="url(#filter26_d_54_2046)">
<rect x="240.64" y="98.9867" width="26.4533" height="35.84" rx="4.26667" fill="white" shape-rendering="crispEdges"/>
<path d="M261.252 118.091H246.477V116.87H261.252V118.091Z" fill="black"/>
</g>
<g filter="url(#filter27_d_54_2046)">
<rect x="279.894" y="98.9867" width="37.5467" height="35.84" rx="4.26667" fill="#ABB0BC" shape-rendering="crispEdges"/>
<path d="M298.205 113.954C297.989 113.738 297.637 113.738 297.421 113.954C297.204 114.171 297.204 114.522 297.421 114.739L299.589 116.907L297.421 119.074C297.204 119.291 297.204 119.642 297.421 119.859C297.637 120.075 297.989 120.075 298.205 119.859L300.373 117.691L302.541 119.859C302.757 120.075 303.109 120.075 303.325 119.859C303.542 119.642 303.542 119.291 303.325 119.074L301.157 116.907L303.325 114.739C303.542 114.522 303.542 114.171 303.325 113.954C303.109 113.738 302.757 113.738 302.541 113.954L300.373 116.122L298.205 113.954Z" fill="black"/>
<path fill-rule="evenodd" clip-rule="evenodd" d="M296.264 109.909C295.599 109.909 294.961 110.168 294.483 110.63L288.95 115.987C288.43 116.49 288.43 117.323 288.95 117.826L294.483 123.183C294.961 123.646 295.599 123.904 296.264 123.904H305.203C306.777 123.904 308.053 122.628 308.053 121.054V112.896C308.053 111.246 306.716 109.909 305.066 109.909H296.264ZM305.066 111.104C306.056 111.104 306.858 111.906 306.858 112.896V121.054C306.858 121.968 306.117 122.709 305.203 122.709H296.264C295.91 122.709 295.569 122.571 295.314 122.325L289.781 116.968C289.746 116.934 289.746 116.879 289.781 116.845L295.314 111.488C295.569 111.242 295.91 111.104 296.264 111.104H305.066Z" fill="black"/>
</g>
<g filter="url(#filter28_d_54_2046)">
<rect x="2.56006" y="145.067" width="35.84" height="35.84" rx="4.26667" fill="#ABB0BC" shape-rendering="crispEdges"/>
<path d="M12.7799 168.107H13.9399V158.487H12.7665L10.2065 160.327V161.533L12.7532 159.76H12.7799V168.107Z" fill="black"/>
<path d="M16.3799 168.107H22.7265V167.04H18.0265V167.013L20.3132 164.667C22.0799 162.86 22.5665 162.067 22.5665 161.013V161C22.5665 159.493 21.2932 158.327 19.5532 158.327C17.7599 158.327 16.3199 159.56 16.3199 161.227V161.267H17.4799V161.233C17.4799 160.2 18.3732 159.373 19.5732 159.373C20.6199 159.373 21.3599 160.08 21.3665 161.06V161.073C21.3665 161.873 21.0665 162.393 19.7665 163.747L16.3799 167.28V168.107Z" fill="black"/>
<path d="M27.3532 168.267C29.2799 168.267 30.6932 167.08 30.6932 165.473V165.46C30.6932 164.093 29.7399 163.22 28.3399 163.1V163.073C29.5399 162.82 30.3799 162.007 30.3799 160.82V160.807C30.3799 159.347 29.1732 158.327 27.3399 158.327C25.5399 158.327 24.2999 159.373 24.1465 160.94L24.1399 161.007H25.2932L25.2999 160.94C25.3999 159.967 26.2065 159.367 27.3399 159.367C28.5132 159.367 29.1732 159.947 29.1732 160.953V160.967C29.1732 161.927 28.3732 162.633 27.2265 162.633H26.0732V163.647H27.2799C28.6265 163.647 29.4732 164.307 29.4732 165.487V165.5C29.4732 166.52 28.6132 167.227 27.3532 167.227C26.0732 167.227 25.2065 166.573 25.1065 165.627L25.0999 165.56H23.9465L23.9532 165.64C24.0799 167.16 25.3665 168.267 27.3532 168.267Z" fill="black"/>
</g>
<g filter="url(#filter29_d_54_2046)">
<rect x="43.52" y="145.067" width="36.6933" height="35.84" rx="4.26667" fill="#ABB0BC" shape-rendering="crispEdges"/>
<path fill-rule="evenodd" clip-rule="evenodd" d="M61.8668 154.453C66.5797 154.453 70.4002 158.274 70.4002 162.987C70.4002 167.7 66.5797 171.52 61.8668 171.52C57.154 171.52 53.3335 167.7 53.3335 162.987C53.3335 158.274 57.154 154.453 61.8668 154.453ZM61.8668 155.448C66.0305 155.448 69.4055 158.824 69.4052 162.987C69.4049 167.151 66.0294 170.526 61.8657 170.526C57.702 170.526 54.3268 167.15 54.3268 162.987C54.3268 160.987 55.1213 159.069 56.5353 157.655C57.9494 156.242 59.8672 155.447 61.8668 155.448ZM59.1673 159.285C58.9036 159.282 58.6496 159.385 58.4622 159.571C58.2748 159.756 58.1697 160.009 58.1704 160.273C58.1704 160.824 58.6167 161.27 59.1673 161.27C59.7179 161.27 60.1642 160.824 60.1642 160.273C60.1649 160.009 60.0598 159.756 59.8724 159.571C59.6851 159.385 59.4311 159.282 59.1673 159.285ZM67.5537 164.457C67.0993 166.912 64.7293 168.962 61.8658 168.962C59.025 168.962 56.669 166.942 56.1879 164.514C56.0904 163.908 56.5866 163.765 57.054 163.878C58.6177 164.331 60.2393 164.551 61.8668 164.531C63.4907 164.55 65.1086 164.331 66.669 163.881C67.1234 163.765 67.61 163.896 67.5537 164.457ZM66.011 164.798C65.9667 164.815 65.9217 164.828 65.8762 164.843C65.8715 164.845 66.0217 164.796 66.0172 164.798C64.668 165.169 63.2732 165.35 61.8739 165.333C60.2039 165.333 58.7103 165.148 57.6825 164.779C56.9373 164.557 57.0803 165.434 57.604 165.702C58.9439 166.312 60.4016 166.62 61.8737 166.603C63.6247 166.603 65.185 166.195 66.2156 165.668C66.7033 165.355 66.7997 164.514 66.011 164.798ZM64.5719 159.285C64.3081 159.282 64.0541 159.385 63.8667 159.571C63.6793 159.756 63.5741 160.009 63.5748 160.273C63.5695 160.633 63.7584 160.967 64.069 161.149C64.3797 161.33 64.7639 161.33 65.0746 161.149C65.3852 160.967 65.5741 160.633 65.5688 160.273C65.5694 160.009 65.4643 159.756 65.277 159.571C65.0896 159.385 64.8356 159.282 64.5719 159.285Z" fill="black"/>
</g>
<g filter="url(#filter30_d_54_2046)">
<rect x="85.3335" y="145.067" width="65.7067" height="35.84" rx="4.26667" fill="white" shape-rendering="crispEdges"/>
<path d="M105.456 161.727L104.882 162.6C102.875 162 100.936 160.307 100.445 159.092C100.022 160.307 98.1239 162 96.0486 162.587L95.5024 161.699C97.4412 161.317 99.9261 159.474 99.9261 157.521V156.579H101.005V157.521C101.005 159.474 103.626 161.317 105.456 161.727ZM105.852 165.877H95.0792V165.003H105.852V165.877ZM112.818 164.198C112.176 164.293 111.125 164.389 110.074 164.444C108.968 164.512 107.917 164.553 106.906 164.553L106.742 163.652H108.067L107.712 158.723L108.749 158.586C108.831 160.266 108.954 161.945 109.05 163.624L110.005 163.584C110.087 163.584 110.169 163.584 110.265 163.57C110.36 161.918 110.47 160.238 110.579 158.586L111.617 158.696C111.48 160.293 111.343 161.904 111.18 163.515C111.767 163.461 112.299 163.42 112.722 163.351C112.75 163.638 112.777 163.911 112.818 164.198ZM114.73 166.901H113.719V161.03H112.081V160.17H113.719V155.869H114.73V166.901ZM116.955 167.516H115.931V155.583H116.955V167.516ZM112.436 157.931H107.043V157.071H112.436V157.931ZM128.523 167.516H127.485V155.583H128.523V167.516ZM119.102 160.689C119.102 158.177 120.221 156.484 122.174 156.484C124.154 156.484 125.259 158.177 125.259 160.703C125.259 163.229 124.154 164.922 122.174 164.922C120.221 164.922 119.102 163.229 119.102 160.689ZM124.276 160.703C124.276 158.737 123.444 157.385 122.174 157.385C120.918 157.385 120.085 158.737 120.085 160.703C120.085 162.655 120.918 164.02 122.174 164.02C123.444 164.02 124.276 162.655 124.276 160.703ZM140.896 161.727L140.322 162.6C138.315 162 136.376 160.307 135.885 159.092C135.462 160.307 133.564 162 131.489 162.587L130.942 161.699C132.881 161.317 135.366 159.474 135.366 157.521V156.579H136.445V157.521C136.445 159.474 139.066 161.317 140.896 161.727ZM141.292 165.877H130.519V165.003H141.292V165.877Z" fill="black"/>
</g>
<g filter="url(#filter31_d_54_2046)">
<rect x="156.16" y="145.067" width="36.6933" height="35.84" rx="4.26667" fill="white" shape-rendering="crispEdges"/>
<path d="M174.076 166.538C172.234 166.529 170.904 165.053 170.904 162.67C170.904 160.305 172.261 158.829 174.094 158.82C175.414 158.829 175.955 159.673 176.184 160.085H176.276V158.967H177.669V164.32C177.697 165.035 177.99 165.393 178.586 165.383C179.723 165.393 180.484 164.063 180.493 162.157C180.511 158.701 178.009 156.446 174.498 156.437C170.868 156.455 168.53 159.26 168.521 162.67C168.521 166.401 170.556 168.958 174.424 168.922C175.708 168.903 176.551 168.821 177.669 168.518V169.765C176.707 170.022 175.634 170.187 174.424 170.187C169.942 170.187 167.192 167.318 167.201 162.67C167.183 158.334 170.226 155.172 174.498 155.172C178.879 155.172 181.831 158.151 181.813 162.102C181.822 164.953 180.355 166.612 178.494 166.612C177.339 166.612 176.469 165.961 176.395 165.108H176.276C176.065 165.521 175.506 166.529 174.076 166.538ZM172.334 162.652C172.325 164.082 173.04 165.191 174.314 165.2C175.625 165.191 176.285 164.173 176.294 162.652C176.285 161.167 175.634 160.168 174.314 160.158C173.031 160.168 172.325 161.249 172.334 162.652Z" fill="black"/>
</g>
<g filter="url(#filter32_d_54_2046)">
<rect x="197.973" y="145.067" width="36.6933" height="35.84" rx="4.26667" fill="white" shape-rendering="crispEdges"/>
<path d="M216.32 168.39C215.678 168.381 215.128 167.849 215.146 167.198C215.128 166.557 215.678 166.025 216.32 166.025C216.971 166.025 217.502 166.557 217.493 167.198C217.502 167.849 216.971 168.381 216.32 168.39Z" fill="black"/>
</g>
<g filter="url(#filter33_d_54_2046)">
<rect x="239.787" y="145.067" width="77.6533" height="35.84" rx="4.26667" fill="#ABB0BC" shape-rendering="crispEdges"/>
<path fill-rule="evenodd" clip-rule="evenodd" d="M284.8 162.987V156.587H286.08V162.987C286.08 164.283 285.03 165.333 283.734 165.333H273.016L276.484 168.486L275.623 169.434L270.93 165.167C270.792 165.042 270.716 164.863 270.72 164.677C270.725 164.491 270.811 164.316 270.955 164.198L275.648 160.358L276.459 161.349L273.153 164.053H283.734C284.323 164.053 284.8 163.576 284.8 162.987Z" fill="black"/>
</g>
<g clip-path="url(#clip0_54_2046)">
<rect x="99.8398" y="237.227" width="117.76" height="4.26667" rx="2.13333" fill="black"/>
<path fill-rule="evenodd" clip-rule="evenodd" d="M44.6512 221.608C46.3413 219.603 47.3598 217.014 47.3598 214.187C47.3598 207.824 42.2021 202.667 35.8398 202.667C29.4775 202.667 24.3198 207.824 24.3198 214.187C24.3198 217.014 25.3383 219.603 27.0284 221.608C27.0185 221.62 27.0086 221.631 26.9987 221.643C27.2751 221.974 27.5696 222.288 27.8807 222.586C27.8915 222.573 27.9023 222.559 27.9132 222.546C29.9783 224.505 32.7687 225.707 35.8398 225.707C38.9109 225.707 41.7013 224.505 43.7665 222.546C43.7773 222.559 43.7882 222.573 43.7989 222.586C44.1101 222.288 44.4046 221.974 44.6809 221.643C44.671 221.631 44.6612 221.62 44.6512 221.608ZM35.1998 218.809V224.314C34.4113 224.04 33.5343 223.251 32.7524 221.743C32.4231 221.108 32.1321 220.381 31.8915 219.578C32.9199 219.148 34.0334 218.881 35.1998 218.809ZM36.4798 218.809V224.314C37.2683 224.04 38.1453 223.251 38.9273 221.743C39.2566 221.108 39.5475 220.381 39.7882 219.578C38.7598 219.148 37.6462 218.881 36.4798 218.809ZM40.1088 218.326C38.9766 217.874 37.7558 217.597 36.4798 217.527V214.827H40.5236C40.4861 216.071 40.3403 217.249 40.1088 218.326ZM40.9504 220.154C40.4721 221.674 39.8165 222.964 39.0389 223.917C40.4962 223.438 41.8091 222.641 42.8955 221.608C42.3089 221.05 41.6562 220.561 40.9504 220.154ZM43.7665 220.67C43.0289 219.97 42.1988 219.367 41.2964 218.881C41.5858 217.631 41.7633 216.264 41.8041 214.827H46.0602C45.9238 217.037 45.086 219.058 43.7665 220.67ZM27.9132 220.67C28.6508 219.97 29.4809 219.367 30.3833 218.881C30.0938 217.631 29.9164 216.264 29.8756 214.827H25.6195C25.7558 217.037 26.5937 219.058 27.9132 220.67ZM31.5709 218.326C31.3393 217.249 31.1935 216.071 31.1561 214.827H35.1998V217.527C33.9238 217.597 32.7031 217.874 31.5709 218.326ZM30.7292 220.154C30.0234 220.561 29.3708 221.05 28.7842 221.608C29.8705 222.641 31.1835 223.438 32.6408 223.917C31.8632 222.964 31.2076 221.674 30.7292 220.154ZM35.1998 213.547H31.1561C31.1955 212.237 31.3548 211.002 31.6076 209.88C32.7295 210.324 33.9376 210.596 35.1998 210.665V213.547ZM35.1998 209.383C34.0521 209.312 32.9554 209.052 31.9407 208.634C32.1715 207.895 32.4453 207.222 32.7524 206.63C33.5343 205.122 34.4113 204.333 35.1998 204.06V209.383ZM36.4798 210.665V213.547H40.5236C40.4842 212.237 40.3249 211.002 40.072 209.88C38.9502 210.324 37.7421 210.596 36.4798 210.665ZM39.7389 208.634C38.7242 209.052 37.6276 209.312 36.4798 209.383V204.06C37.2683 204.333 38.1453 205.122 38.9273 206.63C39.2344 207.222 39.5082 207.895 39.7389 208.634ZM41.2583 209.331C41.5703 210.624 41.7615 212.047 41.8041 213.547H46.0602C45.9209 211.289 45.0501 209.229 43.6818 207.601C42.9551 208.277 42.141 208.86 41.2583 209.331ZM42.7988 206.675C42.2237 207.208 41.5873 207.675 40.9013 208.066C40.4276 206.612 39.7902 205.377 39.0389 204.456C40.4532 204.921 41.7316 205.685 42.7988 206.675ZM30.7783 208.066C31.252 206.612 31.8895 205.377 32.6408 204.456C31.2264 204.921 29.9481 205.685 28.8808 206.675C29.4559 207.208 30.0924 207.675 30.7783 208.066ZM27.9978 207.601C26.6296 209.229 25.7587 211.289 25.6195 213.547H29.8756C29.9181 212.047 30.1094 210.624 30.4214 209.331C29.5387 208.86 28.7246 208.277 27.9978 207.601Z" fill="#919191"/>
<path fill-rule="evenodd" clip-rule="evenodd" d="M284.519 201.387C282.374 201.387 280.636 203.125 280.636 205.269V213.376C280.636 215.52 282.374 217.259 284.519 217.259C286.663 217.259 288.401 215.52 288.401 213.376V205.269C288.401 203.125 286.663 201.387 284.519 201.387ZM282.001 205.269C282.001 203.879 283.128 202.752 284.519 202.752C285.909 202.752 287.036 203.879 287.036 205.269V213.376C287.036 214.766 285.909 215.893 284.519 215.893C283.128 215.893 282.001 214.766 282.001 213.376V205.269Z" fill="#51555B"/>
<path d="M279.399 224C279.022 224 278.716 224.306 278.716 224.683C278.716 225.06 279.022 225.365 279.399 225.365H289.639C290.016 225.365 290.321 225.06 290.321 224.683C290.321 224.306 290.016 224 289.639 224H285.201V221.233C289.19 221.055 292.369 217.764 292.369 213.731V211.2C292.369 210.823 292.064 210.517 291.687 210.517C291.31 210.517 291.004 210.823 291.004 211.2V213.731C291.004 217.125 288.253 219.875 284.86 219.875H284.177C280.784 219.875 278.033 217.125 278.033 213.731V211.2C278.033 210.823 277.728 210.517 277.351 210.517C276.974 210.517 276.668 210.823 276.668 211.2V213.731C276.668 217.764 279.847 221.055 283.836 221.233V224H279.399Z" fill="#51555B"/>
</g>
<defs>
<filter id="filter0_d_54_2046" x="2.56006" y="6.82666" width="27.3066" height="36.6934" filterUnits="userSpaceOnUse" color-interpolation-filters="sRGB">
<feFlood flood-opacity="0" result="BackgroundImageFix"/>
<feColorMatrix in="SourceAlpha" type="matrix" values="0 0 0 0 0 0 0 0 0 0 0 0 0 0 0 0 0 0 127 0" result="hardAlpha"/>
<feOffset dy="0.853333"/>
<feComposite in2="hardAlpha" operator="out"/>
<feColorMatrix type="matrix" values="0 0 0 0 0 0 0 0 0 0 0 0 0 0 0 0 0 0 0.3 0"/>
<feBlend mode="normal" in2="BackgroundImageFix" result="effect1_dropShadow_54_2046"/>
<feBlend mode="normal" in="SourceGraphic" in2="effect1_dropShadow_54_2046" result="shape"/>
</filter>
<filter id="filter1_d_54_2046" x="34.9868" y="6.82666" width="26.4531" height="36.6934" filterUnits="userSpaceOnUse" color-interpolation-filters="sRGB">
<feFlood flood-opacity="0" result="BackgroundImageFix"/>
<feColorMatrix in="SourceAlpha" type="matrix" values="0 0 0 0 0 0 0 0 0 0 0 0 0 0 0 0 0 0 127 0" result="hardAlpha"/>
<feOffset dy="0.853333"/>
<feComposite in2="hardAlpha" operator="out"/>
<feColorMatrix type="matrix" values="0 0 0 0 0 0 0 0 0 0 0 0 0 0 0 0 0 0 0.3 0"/>
<feBlend mode="normal" in2="BackgroundImageFix" result="effect1_dropShadow_54_2046"/>
<feBlend mode="normal" in="SourceGraphic" in2="effect1_dropShadow_54_2046" result="shape"/>
</filter>
<filter id="filter2_d_54_2046" x="66.5601" y="6.82666" width="27.3066" height="36.6934" filterUnits="userSpaceOnUse" color-interpolation-filters="sRGB">
<feFlood flood-opacity="0" result="BackgroundImageFix"/>
<feColorMatrix in="SourceAlpha" type="matrix" values="0 0 0 0 0 0 0 0 0 0 0 0 0 0 0 0 0 0 127 0" result="hardAlpha"/>
<feOffset dy="0.853333"/>
<feComposite in2="hardAlpha" operator="out"/>
<feColorMatrix type="matrix" values="0 0 0 0 0 0 0 0 0 0 0 0 0 0 0 0 0 0 0.3 0"/>
<feBlend mode="normal" in2="BackgroundImageFix" result="effect1_dropShadow_54_2046"/>
<feBlend mode="normal" in="SourceGraphic" in2="effect1_dropShadow_54_2046" result="shape"/>
</filter>
<filter id="filter3_d_54_2046" x="98.9868" y="6.82666" width="26.4531" height="36.6934" filterUnits="userSpaceOnUse" color-interpolation-filters="sRGB">
<feFlood flood-opacity="0" result="BackgroundImageFix"/>
<feColorMatrix in="SourceAlpha" type="matrix" values="0 0 0 0 0 0 0 0 0 0 0 0 0 0 0 0 0 0 127 0" result="hardAlpha"/>
<feOffset dy="0.853333"/>
<feComposite in2="hardAlpha" operator="out"/>
<feColorMatrix type="matrix" values="0 0 0 0 0 0 0 0 0 0 0 0 0 0 0 0 0 0 0.3 0"/>
<feBlend mode="normal" in2="BackgroundImageFix" result="effect1_dropShadow_54_2046"/>
<feBlend mode="normal" in="SourceGraphic" in2="effect1_dropShadow_54_2046" result="shape"/>
</filter>
<filter id="filter4_d_54_2046" x="130.56" y="6.82666" width="27.3066" height="36.6934" filterUnits="userSpaceOnUse" color-interpolation-filters="sRGB">
<feFlood flood-opacity="0" result="BackgroundImageFix"/>
<feColorMatrix in="SourceAlpha" type="matrix" values="0 0 0 0 0 0 0 0 0 0 0 0 0 0 0 0 0 0 127 0" result="hardAlpha"/>
<feOffset dy="0.853333"/>
<feComposite in2="hardAlpha" operator="out"/>
<feColorMatrix type="matrix" values="0 0 0 0 0 0 0 0 0 0 0 0 0 0 0 0 0 0 0.3 0"/>
<feBlend mode="normal" in2="BackgroundImageFix" result="effect1_dropShadow_54_2046"/>
<feBlend mode="normal" in="SourceGraphic" in2="effect1_dropShadow_54_2046" result="shape"/>
</filter>
<filter id="filter5_d_54_2046" x="162.987" y="6.82666" width="26.4531" height="36.6934" filterUnits="userSpaceOnUse" color-interpolation-filters="sRGB">
<feFlood flood-opacity="0" result="BackgroundImageFix"/>
<feColorMatrix in="SourceAlpha" type="matrix" values="0 0 0 0 0 0 0 0 0 0 0 0 0 0 0 0 0 0 127 0" result="hardAlpha"/>
<feOffset dy="0.853333"/>
<feComposite in2="hardAlpha" operator="out"/>
<feColorMatrix type="matrix" values="0 0 0 0 0 0 0 0 0 0 0 0 0 0 0 0 0 0 0.3 0"/>
<feBlend mode="normal" in2="BackgroundImageFix" result="effect1_dropShadow_54_2046"/>
<feBlend mode="normal" in="SourceGraphic" in2="effect1_dropShadow_54_2046" result="shape"/>
</filter>
<filter id="filter6_d_54_2046" x="194.56" y="6.82666" width="26.4531" height="36.6934" filterUnits="userSpaceOnUse" color-interpolation-filters="sRGB">
<feFlood flood-opacity="0" result="BackgroundImageFix"/>
<feColorMatrix in="SourceAlpha" type="matrix" values="0 0 0 0 0 0 0 0 0 0 0 0 0 0 0 0 0 0 127 0" result="hardAlpha"/>
<feOffset dy="0.853333"/>
<feComposite in2="hardAlpha" operator="out"/>
<feColorMatrix type="matrix" values="0 0 0 0 0 0 0 0 0 0 0 0 0 0 0 0 0 0 0.3 0"/>
<feBlend mode="normal" in2="BackgroundImageFix" result="effect1_dropShadow_54_2046"/>
<feBlend mode="normal" in="SourceGraphic" in2="effect1_dropShadow_54_2046" result="shape"/>
</filter>
<filter id="filter7_d_54_2046" x="226.133" y="6.82666" width="27.3066" height="36.6934" filterUnits="userSpaceOnUse" color-interpolation-filters="sRGB">
<feFlood flood-opacity="0" result="BackgroundImageFix"/>
<feColorMatrix in="SourceAlpha" type="matrix" values="0 0 0 0 0 0 0 0 0 0 0 0 0 0 0 0 0 0 127 0" result="hardAlpha"/>
<feOffset dy="0.853333"/>
<feComposite in2="hardAlpha" operator="out"/>
<feColorMatrix type="matrix" values="0 0 0 0 0 0 0 0 0 0 0 0 0 0 0 0 0 0 0.3 0"/>
<feBlend mode="normal" in2="BackgroundImageFix" result="effect1_dropShadow_54_2046"/>
<feBlend mode="normal" in="SourceGraphic" in2="effect1_dropShadow_54_2046" result="shape"/>
</filter>
<filter id="filter8_d_54_2046" x="258.56" y="6.82666" width="26.4531" height="36.6934" filterUnits="userSpaceOnUse" color-interpolation-filters="sRGB">
<feFlood flood-opacity="0" result="BackgroundImageFix"/>
<feColorMatrix in="SourceAlpha" type="matrix" values="0 0 0 0 0 0 0 0 0 0 0 0 0 0 0 0 0 0 127 0" result="hardAlpha"/>
<feOffset dy="0.853333"/>
<feComposite in2="hardAlpha" operator="out"/>
<feColorMatrix type="matrix" values="0 0 0 0 0 0 0 0 0 0 0 0 0 0 0 0 0 0 0.3 0"/>
<feBlend mode="normal" in2="BackgroundImageFix" result="effect1_dropShadow_54_2046"/>
<feBlend mode="normal" in="SourceGraphic" in2="effect1_dropShadow_54_2046" result="shape"/>
</filter>
<filter id="filter9_d_54_2046" x="290.133" y="6.82666" width="27.3066" height="36.6934" filterUnits="userSpaceOnUse" color-interpolation-filters="sRGB">
<feFlood flood-opacity="0" result="BackgroundImageFix"/>
<feColorMatrix in="SourceAlpha" type="matrix" values="0 0 0 0 0 0 0 0 0 0 0 0 0 0 0 0 0 0 127 0" result="hardAlpha"/>
<feOffset dy="0.853333"/>
<feComposite in2="hardAlpha" operator="out"/>
<feColorMatrix type="matrix" values="0 0 0 0 0 0 0 0 0 0 0 0 0 0 0 0 0 0 0.3 0"/>
<feBlend mode="normal" in2="BackgroundImageFix" result="effect1_dropShadow_54_2046"/>
<feBlend mode="normal" in="SourceGraphic" in2="effect1_dropShadow_54_2046" result="shape"/>
</filter>
<filter id="filter10_d_54_2046" x="19.2002" y="52.9066" width="27.3066" height="36.6933" filterUnits="userSpaceOnUse" color-interpolation-filters="sRGB">
<feFlood flood-opacity="0" result="BackgroundImageFix"/>
<feColorMatrix in="SourceAlpha" type="matrix" values="0 0 0 0 0 0 0 0 0 0 0 0 0 0 0 0 0 0 127 0" result="hardAlpha"/>
<feOffset dy="0.853333"/>
<feComposite in2="hardAlpha" operator="out"/>
<feColorMatrix type="matrix" values="0 0 0 0 0 0 0 0 0 0 0 0 0 0 0 0 0 0 0.3 0"/>
<feBlend mode="normal" in2="BackgroundImageFix" result="effect1_dropShadow_54_2046"/>
<feBlend mode="normal" in="SourceGraphic" in2="effect1_dropShadow_54_2046" result="shape"/>
</filter>
<filter id="filter11_d_54_2046" x="51.6265" y="52.9066" width="25.6001" height="36.6933" filterUnits="userSpaceOnUse" color-interpolation-filters="sRGB">
<feFlood flood-opacity="0" result="BackgroundImageFix"/>
<feColorMatrix in="SourceAlpha" type="matrix" values="0 0 0 0 0 0 0 0 0 0 0 0 0 0 0 0 0 0 127 0" result="hardAlpha"/>
<feOffset dy="0.853333"/>
<feComposite in2="hardAlpha" operator="out"/>
<feColorMatrix type="matrix" values="0 0 0 0 0 0 0 0 0 0 0 0 0 0 0 0 0 0 0.3 0"/>
<feBlend mode="normal" in2="BackgroundImageFix" result="effect1_dropShadow_54_2046"/>
<feBlend mode="normal" in="SourceGraphic" in2="effect1_dropShadow_54_2046" result="shape"/>
</filter>
<filter id="filter12_d_54_2046" x="82.3467" y="52.9066" width="27.3066" height="36.6933" filterUnits="userSpaceOnUse" color-interpolation-filters="sRGB">
<feFlood flood-opacity="0" result="BackgroundImageFix"/>
<feColorMatrix in="SourceAlpha" type="matrix" values="0 0 0 0 0 0 0 0 0 0 0 0 0 0 0 0 0 0 127 0" result="hardAlpha"/>
<feOffset dy="0.853333"/>
<feComposite in2="hardAlpha" operator="out"/>
<feColorMatrix type="matrix" values="0 0 0 0 0 0 0 0 0 0 0 0 0 0 0 0 0 0 0.3 0"/>
<feBlend mode="normal" in2="BackgroundImageFix" result="effect1_dropShadow_54_2046"/>
<feBlend mode="normal" in="SourceGraphic" in2="effect1_dropShadow_54_2046" result="shape"/>
</filter>
<filter id="filter13_d_54_2046" x="114.773" y="52.9066" width="27.3066" height="36.6933" filterUnits="userSpaceOnUse" color-interpolation-filters="sRGB">
<feFlood flood-opacity="0" result="BackgroundImageFix"/>
<feColorMatrix in="SourceAlpha" type="matrix" values="0 0 0 0 0 0 0 0 0 0 0 0 0 0 0 0 0 0 127 0" result="hardAlpha"/>
<feOffset dy="0.853333"/>
<feComposite in2="hardAlpha" operator="out"/>
<feColorMatrix type="matrix" values="0 0 0 0 0 0 0 0 0 0 0 0 0 0 0 0 0 0 0.3 0"/>
<feBlend mode="normal" in2="BackgroundImageFix" result="effect1_dropShadow_54_2046"/>
<feBlend mode="normal" in="SourceGraphic" in2="effect1_dropShadow_54_2046" result="shape"/>
</filter>
<filter id="filter14_d_54_2046" x="147.2" y="52.9066" width="25.6001" height="36.6933" filterUnits="userSpaceOnUse" color-interpolation-filters="sRGB">
<feFlood flood-opacity="0" result="BackgroundImageFix"/>
<feColorMatrix in="SourceAlpha" type="matrix" values="0 0 0 0 0 0 0 0 0 0 0 0 0 0 0 0 0 0 127 0" result="hardAlpha"/>
<feOffset dy="0.853333"/>
<feComposite in2="hardAlpha" operator="out"/>
<feColorMatrix type="matrix" values="0 0 0 0 0 0 0 0 0 0 0 0 0 0 0 0 0 0 0.3 0"/>
<feBlend mode="normal" in2="BackgroundImageFix" result="effect1_dropShadow_54_2046"/>
<feBlend mode="normal" in="SourceGraphic" in2="effect1_dropShadow_54_2046" result="shape"/>
</filter>
<filter id="filter15_d_54_2046" x="177.92" y="52.9066" width="27.3066" height="36.6933" filterUnits="userSpaceOnUse" color-interpolation-filters="sRGB">
<feFlood flood-opacity="0" result="BackgroundImageFix"/>
<feColorMatrix in="SourceAlpha" type="matrix" values="0 0 0 0 0 0 0 0 0 0 0 0 0 0 0 0 0 0 127 0" result="hardAlpha"/>
<feOffset dy="0.853333"/>
<feComposite in2="hardAlpha" operator="out"/>
<feColorMatrix type="matrix" values="0 0 0 0 0 0 0 0 0 0 0 0 0 0 0 0 0 0 0.3 0"/>
<feBlend mode="normal" in2="BackgroundImageFix" result="effect1_dropShadow_54_2046"/>
<feBlend mode="normal" in="SourceGraphic" in2="effect1_dropShadow_54_2046" result="shape"/>
</filter>
<filter id="filter16_d_54_2046" x="210.347" y="52.9066" width="27.3066" height="36.6933" filterUnits="userSpaceOnUse" color-interpolation-filters="sRGB">
<feFlood flood-opacity="0" result="BackgroundImageFix"/>
<feColorMatrix in="SourceAlpha" type="matrix" values="0 0 0 0 0 0 0 0 0 0 0 0 0 0 0 0 0 0 127 0" result="hardAlpha"/>
<feOffset dy="0.853333"/>
<feComposite in2="hardAlpha" operator="out"/>
<feColorMatrix type="matrix" values="0 0 0 0 0 0 0 0 0 0 0 0 0 0 0 0 0 0 0.3 0"/>
<feBlend mode="normal" in2="BackgroundImageFix" result="effect1_dropShadow_54_2046"/>
<feBlend mode="normal" in="SourceGraphic" in2="effect1_dropShadow_54_2046" result="shape"/>
</filter>
<filter id="filter17_d_54_2046" x="242.773" y="52.9066" width="25.6001" height="36.6933" filterUnits="userSpaceOnUse" color-interpolation-filters="sRGB">
<feFlood flood-opacity="0" result="BackgroundImageFix"/>
<feColorMatrix in="SourceAlpha" type="matrix" values="0 0 0 0 0 0 0 0 0 0 0 0 0 0 0 0 0 0 127 0" result="hardAlpha"/>
<feOffset dy="0.853333"/>
<feComposite in2="hardAlpha" operator="out"/>
<feColorMatrix type="matrix" values="0 0 0 0 0 0 0 0 0 0 0 0 0 0 0 0 0 0 0.3 0"/>
<feBlend mode="normal" in2="BackgroundImageFix" result="effect1_dropShadow_54_2046"/>
<feBlend mode="normal" in="SourceGraphic" in2="effect1_dropShadow_54_2046" result="shape"/>
</filter>
<filter id="filter18_d_54_2046" x="273.493" y="52.9066" width="27.3066" height="36.6933" filterUnits="userSpaceOnUse" color-interpolation-filters="sRGB">
<feFlood flood-opacity="0" result="BackgroundImageFix"/>
<feColorMatrix in="SourceAlpha" type="matrix" values="0 0 0 0 0 0 0 0 0 0 0 0 0 0 0 0 0 0 127 0" result="hardAlpha"/>
<feOffset dy="0.853333"/>
<feComposite in2="hardAlpha" operator="out"/>
<feColorMatrix type="matrix" values="0 0 0 0 0 0 0 0 0 0 0 0 0 0 0 0 0 0 0.3 0"/>
<feBlend mode="normal" in2="BackgroundImageFix" result="effect1_dropShadow_54_2046"/>
<feBlend mode="normal" in="SourceGraphic" in2="effect1_dropShadow_54_2046" result="shape"/>
</filter>
<filter id="filter19_d_54_2046" x="2.56006" y="98.9867" width="37.5469" height="36.6933" filterUnits="userSpaceOnUse" color-interpolation-filters="sRGB">
<feFlood flood-opacity="0" result="BackgroundImageFix"/>
<feColorMatrix in="SourceAlpha" type="matrix" values="0 0 0 0 0 0 0 0 0 0 0 0 0 0 0 0 0 0 127 0" result="hardAlpha"/>
<feOffset dy="0.853333"/>
<feComposite in2="hardAlpha" operator="out"/>
<feColorMatrix type="matrix" values="0 0 0 0 0 0 0 0 0 0 0 0 0 0 0 0 0 0 0.3 0"/>
<feBlend mode="normal" in2="BackgroundImageFix" result="effect1_dropShadow_54_2046"/>
<feBlend mode="normal" in="SourceGraphic" in2="effect1_dropShadow_54_2046" result="shape"/>
</filter>
<filter id="filter20_d_54_2046" x="52.0532" y="98.9867" width="26.4531" height="36.6933" filterUnits="userSpaceOnUse" color-interpolation-filters="sRGB">
<feFlood flood-opacity="0" result="BackgroundImageFix"/>
<feColorMatrix in="SourceAlpha" type="matrix" values="0 0 0 0 0 0 0 0 0 0 0 0 0 0 0 0 0 0 127 0" result="hardAlpha"/>
<feOffset dy="0.853333"/>
<feComposite in2="hardAlpha" operator="out"/>
<feColorMatrix type="matrix" values="0 0 0 0 0 0 0 0 0 0 0 0 0 0 0 0 0 0 0.3 0"/>
<feBlend mode="normal" in2="BackgroundImageFix" result="effect1_dropShadow_54_2046"/>
<feBlend mode="normal" in="SourceGraphic" in2="effect1_dropShadow_54_2046" result="shape"/>
</filter>
<filter id="filter21_d_54_2046" x="83.6265" y="98.9867" width="26.4531" height="36.6933" filterUnits="userSpaceOnUse" color-interpolation-filters="sRGB">
<feFlood flood-opacity="0" result="BackgroundImageFix"/>
<feColorMatrix in="SourceAlpha" type="matrix" values="0 0 0 0 0 0 0 0 0 0 0 0 0 0 0 0 0 0 127 0" result="hardAlpha"/>
<feOffset dy="0.853333"/>
<feComposite in2="hardAlpha" operator="out"/>
<feColorMatrix type="matrix" values="0 0 0 0 0 0 0 0 0 0 0 0 0 0 0 0 0 0 0.3 0"/>
<feBlend mode="normal" in2="BackgroundImageFix" result="effect1_dropShadow_54_2046"/>
<feBlend mode="normal" in="SourceGraphic" in2="effect1_dropShadow_54_2046" result="shape"/>
</filter>
<filter id="filter22_d_54_2046" x="115.2" y="98.9867" width="26.4531" height="36.6933" filterUnits="userSpaceOnUse" color-interpolation-filters="sRGB">
<feFlood flood-opacity="0" result="BackgroundImageFix"/>
<feColorMatrix in="SourceAlpha" type="matrix" values="0 0 0 0 0 0 0 0 0 0 0 0 0 0 0 0 0 0 127 0" result="hardAlpha"/>
<feOffset dy="0.853333"/>
<feComposite in2="hardAlpha" operator="out"/>
<feColorMatrix type="matrix" values="0 0 0 0 0 0 0 0 0 0 0 0 0 0 0 0 0 0 0.3 0"/>
<feBlend mode="normal" in2="BackgroundImageFix" result="effect1_dropShadow_54_2046"/>
<feBlend mode="normal" in="SourceGraphic" in2="effect1_dropShadow_54_2046" result="shape"/>
</filter>
<filter id="filter23_d_54_2046" x="146.773" y="98.9867" width="25.6001" height="36.6933" filterUnits="userSpaceOnUse" color-interpolation-filters="sRGB">
<feFlood flood-opacity="0" result="BackgroundImageFix"/>
<feColorMatrix in="SourceAlpha" type="matrix" values="0 0 0 0 0 0 0 0 0 0 0 0 0 0 0 0 0 0 127 0" result="hardAlpha"/>
<feOffset dy="0.853333"/>
<feComposite in2="hardAlpha" operator="out"/>
<feColorMatrix type="matrix" values="0 0 0 0 0 0 0 0 0 0 0 0 0 0 0 0 0 0 0.3 0"/>
<feBlend mode="normal" in2="BackgroundImageFix" result="effect1_dropShadow_54_2046"/>
<feBlend mode="normal" in="SourceGraphic" in2="effect1_dropShadow_54_2046" result="shape"/>
</filter>
<filter id="filter24_d_54_2046" x="177.493" y="98.9867" width="26.4531" height="36.6933" filterUnits="userSpaceOnUse" color-interpolation-filters="sRGB">
<feFlood flood-opacity="0" result="BackgroundImageFix"/>
<feColorMatrix in="SourceAlpha" type="matrix" values="0 0 0 0 0 0 0 0 0 0 0 0 0 0 0 0 0 0 127 0" result="hardAlpha"/>
<feOffset dy="0.853333"/>
<feComposite in2="hardAlpha" operator="out"/>
<feColorMatrix type="matrix" values="0 0 0 0 0 0 0 0 0 0 0 0 0 0 0 0 0 0 0.3 0"/>
<feBlend mode="normal" in2="BackgroundImageFix" result="effect1_dropShadow_54_2046"/>
<feBlend mode="normal" in="SourceGraphic" in2="effect1_dropShadow_54_2046" result="shape"/>
</filter>
<filter id="filter25_d_54_2046" x="209.067" y="98.9867" width="26.4531" height="36.6933" filterUnits="userSpaceOnUse" color-interpolation-filters="sRGB">
<feFlood flood-opacity="0" result="BackgroundImageFix"/>
<feColorMatrix in="SourceAlpha" type="matrix" values="0 0 0 0 0 0 0 0 0 0 0 0 0 0 0 0 0 0 127 0" result="hardAlpha"/>
<feOffset dy="0.853333"/>
<feComposite in2="hardAlpha" operator="out"/>
<feColorMatrix type="matrix" values="0 0 0 0 0 0 0 0 0 0 0 0 0 0 0 0 0 0 0.3 0"/>
<feBlend mode="normal" in2="BackgroundImageFix" result="effect1_dropShadow_54_2046"/>
<feBlend mode="normal" in="SourceGraphic" in2="effect1_dropShadow_54_2046" result="shape"/>
</filter>
<filter id="filter26_d_54_2046" x="240.64" y="98.9867" width="26.4531" height="36.6933" filterUnits="userSpaceOnUse" color-interpolation-filters="sRGB">
<feFlood flood-opacity="0" result="BackgroundImageFix"/>
<feColorMatrix in="SourceAlpha" type="matrix" values="0 0 0 0 0 0 0 0 0 0 0 0 0 0 0 0 0 0 127 0" result="hardAlpha"/>
<feOffset dy="0.853333"/>
<feComposite in2="hardAlpha" operator="out"/>
<feColorMatrix type="matrix" values="0 0 0 0 0 0 0 0 0 0 0 0 0 0 0 0 0 0 0.3 0"/>
<feBlend mode="normal" in2="BackgroundImageFix" result="effect1_dropShadow_54_2046"/>
<feBlend mode="normal" in="SourceGraphic" in2="effect1_dropShadow_54_2046" result="shape"/>
</filter>
<filter id="filter27_d_54_2046" x="279.894" y="98.9867" width="37.5469" height="36.6933" filterUnits="userSpaceOnUse" color-interpolation-filters="sRGB">
<feFlood flood-opacity="0" result="BackgroundImageFix"/>
<feColorMatrix in="SourceAlpha" type="matrix" values="0 0 0 0 0 0 0 0 0 0 0 0 0 0 0 0 0 0 127 0" result="hardAlpha"/>
<feOffset dy="0.853333"/>
<feComposite in2="hardAlpha" operator="out"/>
<feColorMatrix type="matrix" values="0 0 0 0 0 0 0 0 0 0 0 0 0 0 0 0 0 0 0.3 0"/>
<feBlend mode="normal" in2="BackgroundImageFix" result="effect1_dropShadow_54_2046"/>
<feBlend mode="normal" in="SourceGraphic" in2="effect1_dropShadow_54_2046" result="shape"/>
</filter>
<filter id="filter28_d_54_2046" x="2.56006" y="145.067" width="35.8398" height="36.6933" filterUnits="userSpaceOnUse" color-interpolation-filters="sRGB">
<feFlood flood-opacity="0" result="BackgroundImageFix"/>
<feColorMatrix in="SourceAlpha" type="matrix" values="0 0 0 0 0 0 0 0 0 0 0 0 0 0 0 0 0 0 127 0" result="hardAlpha"/>
<feOffset dy="0.853333"/>
<feComposite in2="hardAlpha" operator="out"/>
<feColorMatrix type="matrix" values="0 0 0 0 0 0 0 0 0 0 0 0 0 0 0 0 0 0 0.3 0"/>
<feBlend mode="normal" in2="BackgroundImageFix" result="effect1_dropShadow_54_2046"/>
<feBlend mode="normal" in="SourceGraphic" in2="effect1_dropShadow_54_2046" result="shape"/>
</filter>
<filter id="filter29_d_54_2046" x="43.52" y="145.067" width="36.6934" height="36.6933" filterUnits="userSpaceOnUse" color-interpolation-filters="sRGB">
<feFlood flood-opacity="0" result="BackgroundImageFix"/>
<feColorMatrix in="SourceAlpha" type="matrix" values="0 0 0 0 0 0 0 0 0 0 0 0 0 0 0 0 0 0 127 0" result="hardAlpha"/>
<feOffset dy="0.853333"/>
<feComposite in2="hardAlpha" operator="out"/>
<feColorMatrix type="matrix" values="0 0 0 0 0 0 0 0 0 0 0 0 0 0 0 0 0 0 0.3 0"/>
<feBlend mode="normal" in2="BackgroundImageFix" result="effect1_dropShadow_54_2046"/>
<feBlend mode="normal" in="SourceGraphic" in2="effect1_dropShadow_54_2046" result="shape"/>
</filter>
<filter id="filter30_d_54_2046" x="85.3335" y="145.067" width="65.7065" height="36.6933" filterUnits="userSpaceOnUse" color-interpolation-filters="sRGB">
<feFlood flood-opacity="0" result="BackgroundImageFix"/>
<feColorMatrix in="SourceAlpha" type="matrix" values="0 0 0 0 0 0 0 0 0 0 0 0 0 0 0 0 0 0 127 0" result="hardAlpha"/>
<feOffset dy="0.853333"/>
<feComposite in2="hardAlpha" operator="out"/>
<feColorMatrix type="matrix" values="0 0 0 0 0 0 0 0 0 0 0 0 0 0 0 0 0 0 0.3 0"/>
<feBlend mode="normal" in2="BackgroundImageFix" result="effect1_dropShadow_54_2046"/>
<feBlend mode="normal" in="SourceGraphic" in2="effect1_dropShadow_54_2046" result="shape"/>
</filter>
<filter id="filter31_d_54_2046" x="156.16" y="145.067" width="36.6934" height="36.6933" filterUnits="userSpaceOnUse" color-interpolation-filters="sRGB">
<feFlood flood-opacity="0" result="BackgroundImageFix"/>
<feColorMatrix in="SourceAlpha" type="matrix" values="0 0 0 0 0 0 0 0 0 0 0 0 0 0 0 0 0 0 127 0" result="hardAlpha"/>
<feOffset dy="0.853333"/>
<feComposite in2="hardAlpha" operator="out"/>
<feColorMatrix type="matrix" values="0 0 0 0 0 0 0 0 0 0 0 0 0 0 0 0 0 0 0.3 0"/>
<feBlend mode="normal" in2="BackgroundImageFix" result="effect1_dropShadow_54_2046"/>
<feBlend mode="normal" in="SourceGraphic" in2="effect1_dropShadow_54_2046" result="shape"/>
</filter>
<filter id="filter32_d_54_2046" x="197.973" y="145.067" width="36.6934" height="36.6933" filterUnits="userSpaceOnUse" color-interpolation-filters="sRGB">
<feFlood flood-opacity="0" result="BackgroundImageFix"/>
<feColorMatrix in="SourceAlpha" type="matrix" values="0 0 0 0 0 0 0 0 0 0 0 0 0 0 0 0 0 0 127 0" result="hardAlpha"/>
<feOffset dy="0.853333"/>
<feComposite in2="hardAlpha" operator="out"/>
<feColorMatrix type="matrix" values="0 0 0 0 0 0 0 0 0 0 0 0 0 0 0 0 0 0 0.3 0"/>
<feBlend mode="normal" in2="BackgroundImageFix" result="effect1_dropShadow_54_2046"/>
<feBlend mode="normal" in="SourceGraphic" in2="effect1_dropShadow_54_2046" result="shape"/>
</filter>
<filter id="filter33_d_54_2046" x="239.787" y="145.067" width="77.6533" height="36.6933" filterUnits="userSpaceOnUse" color-interpolation-filters="sRGB">
<feFlood flood-opacity="0" result="BackgroundImageFix"/>
<feColorMatrix in="SourceAlpha" type="matrix" values="0 0 0 0 0 0 0 0 0 0 0 0 0 0 0 0 0 0 127 0" result="hardAlpha"/>
<feOffset dy="0.853333"/>
<feComposite in2="hardAlpha" operator="out"/>
<feColorMatrix type="matrix" values="0 0 0 0 0 0 0 0 0 0 0 0 0 0 0 0 0 0 0.3 0"/>
<feBlend mode="normal" in2="BackgroundImageFix" result="effect1_dropShadow_54_2046"/>
<feBlend mode="normal" in="SourceGraphic" in2="effect1_dropShadow_54_2046" result="shape"/>
</filter>
<clipPath id="clip0_54_2046">
<rect width="320" height="60.5867" fill="white" transform="translate(0 187.733)"/>
</clipPath>
</defs>
</svg>
